# xmcd CD database file generated by Grip 3.2.0
# 
# Track frame offsets:
#       150
#       30162
#       84882
#       120632
#       162590
#       215430
#       260355
#       291355
# 
# Disc length: 4217 seconds
# 
# Revision: 2
# Processed by: cddbd v1.5.1PL0 Copyright (c) Steve Scherf et al.
# Submitted via: Grip 3.2.0
# 
DISCID=66107708
DTITLE=Pat Martino - Think Tank
DYEAR=2003
DGENRE=Jazz
TTITLE0=The Phineas Trane
TTITLE1=Think Tank
TTITLE2=Dozen Down
TTITLE3=Sun On My Hands
TTITLE4=Africa
TTITLE5=Quatessence
TTITLE6=Before You Ask
TTITLE7=Earthlings
EXTD=YEAR: 2003
EXTT0=
EXTT1=
EXTT2=
EXTT3=
EXTT4=
EXTT5=
EXTT6=
EXTT7=
PLAYORDER=
